<svg id="Layer_1" data-name="Layer 1" xmlns="http://www.w3.org/2000/svg" viewBox="0 0 75.7 122.88"><defs><style>.cls-1{fill:#2e2e2e;}.cls-1,.cls-2{fill-rule:evenodd;}.cls-2{fill:#d8453e;}</style></defs><title>fix-fast</title><path class="cls-1" d="M31.27,0C46.94,33.28-1.43,33.39,0,67.8A56.83,56.83,0,0,0,3.07,82,35.23,35.23,0,1,0,70.9,75.42a36.32,36.32,0,0,0,4.8-17.05C74,44.15,59.84,40.23,67.45,25.15c-9.76.56-12.11,7.17-12.09,17.4,1.21,13.15-23.8,11.19-10.69-4.89,11.27-13.82.19-30-13.4-37.66Zm6.58,56.39A31.26,31.26,0,1,1,6.59,87.65,31.26,31.26,0,0,1,37.85,56.39Z"/><path class="cls-2" d="M53.73,69.46,57.24,73a2.38,2.38,0,0,1,0,3.37l-2.83,2.83a18.89,18.89,0,0,1,1.76,4.69h3.67a2.39,2.39,0,0,1,2.38,2.38v5a2.39,2.39,0,0,1-2.38,2.38h-4a19,19,0,0,1-2.07,4.56l2.59,2.59a2.38,2.38,0,0,1,0,3.37l-3.51,3.52a2.4,2.4,0,0,1-3.37,0l-2.83-2.84A18.5,18.5,0,0,1,42,106.56v3.67a2.39,2.39,0,0,1-2.38,2.38h-5a2.39,2.39,0,0,1-2.38-2.38v-4a19,19,0,0,1-4.56-2.08l-2.59,2.6a2.4,2.4,0,0,1-3.37,0l-3.52-3.52a2.39,2.39,0,0,1,0-3.36L21,97a18.94,18.94,0,0,1-1.75-4.68H15.59A2.39,2.39,0,0,1,13.21,90V85a2.39,2.39,0,0,1,2.38-2.38h4a18.78,18.78,0,0,1,2.08-4.55l-2.6-2.6a2.38,2.38,0,0,1,0-3.37l3.52-3.51a2.37,2.37,0,0,1,3.36,0l2.84,2.83a18.82,18.82,0,0,1,4.68-1.76V66a2.39,2.39,0,0,1,2.38-2.38h5A2.39,2.39,0,0,1,43.21,66v4a18.75,18.75,0,0,1,4.55,2.07l2.6-2.6a2.4,2.4,0,0,1,3.37,0Zm-16,8.87a9.78,9.78,0,1,1-9.78,9.78,9.78,9.78,0,0,1,9.78-9.78Z"/></svg>