<svg id="Layer_1" data-name="Layer 1" xmlns="http://www.w3.org/2000/svg" viewBox="0 0 81.92 122.88"><defs><style>.cls-1{fill:#262626;}.cls-1,.cls-2{fill-rule:evenodd;}.cls-2{fill:#33a867;}.cls-3{fill:#fff;}</style></defs><title>mobile-message-notification</title><path class="cls-1" d="M13.28,0H60.07A13.28,13.28,0,0,1,73.34,13.28v6a21.24,21.24,0,0,0-4-.39h-.57V14.48H4.57v90H68.75V86.5h.57a20.45,20.45,0,0,0,4-.39V109.6a13.28,13.28,0,0,1-13.27,13.28H13.28A13.28,13.28,0,0,1,0,109.6V13.26A13.25,13.25,0,0,1,13.28,0ZM36.65,108.59a5.46,5.46,0,1,1-5.46,5.46,5.45,5.45,0,0,1,5.46-5.46Z"/><path class="cls-2" d="M69.32,26.83a12.54,12.54,0,0,1,12.6,12.59V66a12.55,12.55,0,0,1-12.6,12.6H59.06c-5.27,6.67-12.12,10.68-20.23,12.85A1.8,1.8,0,0,1,37,90.91a1.77,1.77,0,0,1,.15-2.51,19,19,0,0,0,2.61-2.76,23.18,23.18,0,0,0,3.27-7.08h-10A12.56,12.56,0,0,1,20.52,66V39.4A12.55,12.55,0,0,1,33.11,26.8c13.29,0,22.92,0,36.21,0Z"/><path class="cls-3" d="M55.65,66.48a4.45,4.45,0,0,1-1.52,2.6,4.54,4.54,0,0,1-4.46.79,4.2,4.2,0,0,1-1.35-.79,4.35,4.35,0,0,1-1-1.19,4.39,4.39,0,0,1-.53-1.46.48.48,0,0,1,.39-.55h8a.48.48,0,0,1,.46.61ZM41.23,36.71a.94.94,0,0,1,.69,1.75A6.77,6.77,0,0,0,37.73,43a.93.93,0,0,1-1.17.62.94.94,0,0,1-.63-1.17,8.91,8.91,0,0,1,2-3.53,9,9,0,0,1,3.31-2.21Zm19.29,1.75a.94.94,0,0,1,.69-1.75,8.65,8.65,0,0,1,5.3,5.74,1,1,0,0,1-.63,1.18A.94.94,0,0,1,64.71,43a6.83,6.83,0,0,0-4.19-4.54ZM54.88,39.8a11.12,11.12,0,0,1,1.55.76l.06,0a10.89,10.89,0,0,1,1.32,1A10.11,10.11,0,0,1,60,44.18a11.51,11.51,0,0,1,.73,1.55h0a9,9,0,0,1,.47,1.69,9.61,9.61,0,0,1,.16,1.79v1.93c0,.62,0,1.22,0,1.81h0a14.32,14.32,0,0,0,.1,1.6,12.34,12.34,0,0,0,.29,1.54h0a7.27,7.27,0,0,0,.5,1.4A8.89,8.89,0,0,0,63,58.86h0a8.9,8.9,0,0,0,1.15,1.29,14.55,14.55,0,0,0,1.65,1.28.79.79,0,0,1,.22,1.09.8.8,0,0,1-.66.35H37.05a.79.79,0,0,1-.41-1.46,14,14,0,0,0,1.64-1.28,8,8,0,0,0,1.14-1.3l0,0a10.52,10.52,0,0,0,.76-1.33,8.68,8.68,0,0,0,.51-1.4v0A11.26,11.26,0,0,0,41,54.55a12.15,12.15,0,0,0,.1-1.62V49.21a9.77,9.77,0,0,1,.16-1.79,9.49,9.49,0,0,1,.48-1.7,10.11,10.11,0,0,1,.74-1.56,10,10,0,0,1,2.18-2.62,9.76,9.76,0,0,1,3-1.77,9.13,9.13,0,0,1,1.16-.35,2.29,2.29,0,0,1,.7-1.15,2.51,2.51,0,0,1,1.79-.6,2.65,2.65,0,0,1,1.78.61c1.58,1.42-.39.64,1.83,1.52Z"/></svg>